<svg id="Capa_1" enable-background="new 0 0 512.021 512.021" height="512" viewBox="0 0 512.021 512.021" width="512" xmlns="http://www.w3.org/2000/svg"><g><circle cx="389.15" cy="292.556" r="13.43"/><path d="m389.15 188.481c-7.417 0-13.43 6.013-13.43 13.43v42.56c0 7.417 6.013 13.43 13.43 13.43s13.43-6.013 13.43-13.43v-42.56c-.001-7.417-6.013-13.43-13.43-13.43z"/><path d="m505.658 279.67-39.31-68.087c3.735-14.756 5.652-29.994 5.652-45.352 0-75.769-61.643-137.411-137.411-137.411-37.444 0-72.771 15.064-98.589 41.69-25.818-26.626-61.145-41.69-98.588-41.69-75.769-.001-137.412 61.642-137.412 137.41 0 27.816 6.046 54.552 17.971 79.464 3.809 7.956 8.238 15.713 13.166 23.057 10.462 15.591 18.014 32.138 22.446 49.182l30.35 116.715c7.434 28.588 33.256 48.555 62.795 48.555 28.342 0 53.18-18.14 61.806-45.138l17.941-56.159c2.062-6.455 7.812-6.957 9.526-6.957 1.713 0 7.463.502 9.525 6.957l17.941 56.159c8.625 26.998 33.463 45.138 61.806 45.138 29.539 0 55.361-19.967 62.795-48.555l21.992-84.573h54.951c16.968 0 32.164-8.773 40.647-23.468 8.485-14.696 8.485-32.242 0-46.937zm-136.947 149.944c-5.143 19.776-23.005 33.588-43.438 33.588-19.606 0-36.788-12.548-42.754-31.224l-17.941-56.159c-4.05-12.679-15.267-20.871-28.577-20.871-13.309 0-24.527 8.193-28.577 20.871l-17.941 56.159c-5.967 18.676-23.148 31.224-42.754 31.224-20.434 0-38.296-13.812-43.439-33.588l-30.35-116.715c-5-19.227-13.476-37.83-25.195-55.293-4.393-6.546-8.34-13.459-11.733-20.547-10.625-22.195-16.012-46.025-16.012-70.829 0-64.741 52.671-117.411 117.412-117.411 32.464 0 63.062 13.251 85.208 36.635-12.209 11.994-28.315 18.736-45.277 18.736-5.523 0-10 4.478-10 10s4.477 10 10 10c25.709 0 49.904-11.795 66.344-32.27 10.587-12.917 23.61-23.289 38.074-30.579-.893 6.142-.198 12.27 2.36 17.934 8.989 19.903 37.368 26.511 63.386 14.759 1.47-.664 2.9-1.372 4.29-2.121 4.77-2.571 10.655-2.232 14.822 1.231 8.209 6.823 21.239 8.359 33.207 2.953 7.208-3.256 12.769-8.47 16.13-14.431 22.204 21.375 36.044 51.382 36.044 84.564 0 6.25-.372 12.474-1.07 18.647l-21.132-36.602c-8.484-14.695-23.68-23.469-40.648-23.469s-32.164 8.773-40.648 23.469l-75.861 131.395c-8.484 14.695-8.484 32.241 0 46.937 8.484 14.694 23.68 23.468 40.648 23.468h76.105zm119.627-113.008c-4.869 8.433-13.589 13.468-23.327 13.468h-151.722c-9.738 0-18.458-5.035-23.328-13.468-4.869-8.434-4.869-18.503 0-26.937l75.861-131.395c4.869-8.434 13.59-13.469 23.328-13.469s18.458 5.035 23.328 13.469l75.86 131.395c4.869 8.435 4.869 18.504 0 26.937z"/><path d="m154.574 193.076c-4.94-4.528-6.726-11.479-4.406-17.765 6.222-16.859 2.568-36.536-10.974-50.077-18.988-18.988-50.045-18.549-68.475 1.316-16.791 18.099-16.772 46.536.039 64.616 4.143 4.456 8.922 7.929 14.058 10.423 5.916 2.873 9.691 8.935 9.202 15.494-.796 10.67 3.114 21.625 11.739 29.488 13.878 12.652 35.537 12.453 49.195-.437 14.907-14.068 15.165-37.563.771-51.957-.377-.377-.76-.744-1.149-1.101z"/></g></svg>